<svg height="480pt" viewBox="-48 0 480 480" width="480pt" xmlns="http://www.w3.org/2000/svg"><path d="m0 448c0-17.671875 14.328125-32 32-32h352v-384c0-17.671875-14.328125-32-32-32h-320c-17.671875 0-32 14.328125-32 32zm0 0" fill="#eebc5a"/><path d="m360 32c0-4.414062-3.585938-8-8-8h-350.871094c-.664062 2.566406-1.128906 5.222656-1.128906 8v409.128906c.296875-.082031.566406-.199218.863281-.273437 3.25-14.214844 15.929688-24.855469 31.136719-24.855469h328zm0 0" fill="#f8cf6a"/><path d="m320 384h-224l-64-32 64-32h224c17.671875 0 32 14.328125 32 32s-14.328125 32-32 32zm0 0" fill="#abb2bc"/><path d="m320 336h-224l-48 24 48 24h224c14.894531 0 27.296875-10.222656 30.871094-24-3.574219-13.777344-15.976563-24-30.871094-24zm0 0" fill="#cdd1d8"/><path d="m96 320h176v64h-176zm0 0" fill="#5789d6"/><path d="m96 352h176v32h-176zm0 0" fill="#699ce6"/><path d="m272 320h32v64h-32zm0 0" fill="#444a53"/><path d="m272 336h32v48h-32zm0 0" fill="#5e656e"/><path d="m96 384-64-32 64-32" fill="#e2b288"/><path d="m96 384v-48l-48 24zm0 0" fill="#efc399"/><path d="m72 332-40 20 40 20zm0 0" fill="#444a53"/><path d="m48 360 24 12v-24zm0 0" fill="#5e656e"/><path d="m280 224v-48l-18.601562 5.070312c-2.054688-7.558593-5.4375-14.542968-9.671876-20.886718l12.273438-8.183594-24-24-8.183594 12.273438c-6.351562-4.242188-13.328125-7.617188-20.886718-9.671876l5.070312-18.601562h-48l5.070312 18.601562c-7.558593 2.054688-14.644531 5.253907-21.007812 9.503907l-8.0625-12.105469-24 24 12.105469 8.0625c-4.25 6.351562-7.441407 13.441406-9.503907 21.007812l-18.601562-5.070312v48l18.601562-5.070312c2.054688 7.558593 5.4375 14.542968 9.671876 20.886718l-12.273438 8.183594 24 24 8.183594-12.273438c6.351562 4.242188 13.328125 7.617188 20.886718 9.679688l-5.070312 18.59375h48l-5.070312-18.601562c7.558593-2.054688 14.644531-5.253907 21.007812-9.503907l8.0625 12.105469 24-24-12.105469-8.0625c4.25-6.351562 7.441407-13.441406 9.503907-21.007812zm0 0" fill="#abb2bc"/><path d="m232 200c0 22.089844-17.910156 40-40 40s-40-17.910156-40-40 17.910156-40 40-40 40 17.910156 40 40zm0 0" fill="#fefefe"/><path d="m232 0v80l-40-24-40 24v-80" fill="#ca5057"/><path d="m152 80 40-24 40 24v-56h-80zm0 0" fill="#dc6068"/><path d="m32 416h352v64h-352c-17.671875 0-32-14.328125-32-32s14.328125-32 32-32zm0 0" fill="#cdd1d8"/><path d="m2.375 460c4.753906 11.71875 16.199219 20 29.625 20h352v-40h-352c-13.425781 0-24.871094 8.28125-29.625 20zm0 0" fill="#e6e9ed"/></svg>