<?xml version="1.0" encoding="iso-8859-1"?>
<!-- Generator: Adobe Illustrator 19.0.0, SVG Export Plug-In . SVG Version: 6.00 Build 0)  -->
<svg version="1.1" id="Capa_1" xmlns="http://www.w3.org/2000/svg" xmlns:xlink="http://www.w3.org/1999/xlink" x="0px" y="0px"
	 viewBox="0 0 512.001 512.001" style="enable-background:new 0 0 512.001 512.001;" xml:space="preserve">
<rect x="272.491" y="140.16" style="fill:#5D5360;" width="32.98" height="107.18"/>
<g>
	<path style="fill:#4B3F4E;" d="M272.491,179.905c11.846-1.992,22.961-6.057,32.98-11.861v-27.88h-32.98V179.905z"/>
	<rect x="206.531" y="140.16" style="fill:#4B3F4E;" width="32.98" height="65.96"/>
</g>
<g>
	<path style="fill:#5D5360;" d="M206.531,247.348h32.98v-49.47c0-9.107-7.383-16.49-16.49-16.49l0,0
		c-9.107,0-16.49,7.383-16.49,16.49L206.531,247.348L206.531,247.348z"/>
	<path style="fill:#5D5360;" d="M256.001,0c-45.535,0-82.449,36.914-82.449,82.449s36.914,82.449,82.449,82.449
		s82.449-36.914,82.449-82.449S301.536,0,256.001,0z M272.491,98.939h-32.98V65.96h32.98V98.939z"/>
</g>
<path style="fill:#F2A069;" d="M201.94,230.16c-12.321-5.636-26.659,1.807-29.138,15.128c-0.753,4.042-0.292,8.217,1.325,11.998
	l5.027,11.76c2.739,6.408,3.767,13.417,2.983,20.341l-23.053,203.612c-1.008,8.903,5.036,17.071,13.844,18.711
	c9.273,1.726,18.189-4.391,19.915-13.664l46.668-250.698L201.94,230.16z"/>
<path style="fill:#6F6571;" d="M272.491,305.063c-4.557,0-8.245,2.915-8.245,7.472s4.785,7.628,8.245,9.018l16.49,8.245v-24.735
	H272.491z"/>
<g>
	<path style="fill:#4B3F4E;" d="M239.511,65.96l8.245-8.245c0-4.554,3.691-8.245,8.245-8.245l0,0c4.554,0,8.245,3.691,8.245,8.245
		l8.245,8.245H239.511z"/>
	<path style="fill:#4B3F4E;" d="M272.491,98.939l-8.245,8.245c0,4.554-3.691,8.245-8.245,8.245l0,0
		c-4.554,0-8.245-3.691-8.245-8.245l-8.245-8.245H272.491z"/>
	<path style="fill:#4B3F4E;" d="M272.491,65.96l8.245,8.245c4.554,0,8.245,3.691,8.245,8.245l0,0c0,4.554-3.691,8.245-8.245,8.245
		l-8.245,8.245V65.96z"/>
	<path style="fill:#4B3F4E;" d="M239.511,98.939l-8.245-8.245c-4.554,0-8.245-3.691-8.245-8.245l0,0
		c0-4.554,3.691-8.245,8.245-8.245l8.245-8.245V98.939z"/>
</g>
<g>
	<path style="fill:#E68C5A;" d="M206.531,232.26l-3.712-1.698c-8.95-4.094-19.954-2.112-25.958,5.687
		c-4.823,6.266-5.624,14.28-2.736,21.036l5.027,11.76c2.739,6.408,3.767,13.418,2.983,20.342l-23.052,203.611
		c-1.008,8.903,5.036,17.071,13.844,18.711l29.558-196.275c2.693-17.882,4.045-35.94,4.045-54.023V232.26H206.531z"/>
	<path style="fill:#E68C5A;" d="M310.062,230.16c12.321-5.636,26.659,1.807,29.138,15.128c0.753,4.042,0.292,8.217-1.324,11.998
		l-5.027,11.76c-2.739,6.408-3.767,13.417-2.983,20.341l23.052,203.612c1.008,8.903-5.036,17.071-13.844,18.711
		c-9.273,1.726-18.189-4.391-19.915-13.664l-46.668-250.7L310.062,230.16z"/>
</g>
<path style="fill:#F2A069;" d="M305.471,232.26l3.712-1.698c8.95-4.094,19.954-2.112,25.958,5.687
	c4.823,6.266,5.624,14.28,2.736,21.036l-5.027,11.76c-2.739,6.408-3.767,13.418-2.983,20.342l23.052,203.611
	c1.008,8.903-5.036,17.071-13.844,18.711l-29.558-196.275c-2.693-17.882-4.045-35.94-4.045-54.023L305.471,232.26L305.471,232.26z"
	/>
<g>
</g>
<g>
</g>
<g>
</g>
<g>
</g>
<g>
</g>
<g>
</g>
<g>
</g>
<g>
</g>
<g>
</g>
<g>
</g>
<g>
</g>
<g>
</g>
<g>
</g>
<g>
</g>
<g>
</g>
</svg>
